<?xml version="1.0" encoding="UTF-8" standalone="no"?>
<svg
   xmlns:dc="http://purl.org/dc/elements/1.1/"
   xmlns:cc="http://creativecommons.org/ns#"
   xmlns:rdf="http://www.w3.org/1999/02/22-rdf-syntax-ns#"
   xmlns:svg="http://www.w3.org/2000/svg"
   xmlns="http://www.w3.org/2000/svg"
   xmlns:sodipodi="http://sodipodi.sourceforge.net/DTD/sodipodi-0.dtd"
   xmlns:inkscape="http://www.inkscape.org/namespaces/inkscape"
   id="svg2"
   version="1.1"
   inkscape:version="0.91 r13725"
   sodipodi:docname="braincatalogue.svg"
   width="99.419266"
   height="88.345779">
  <metadata
     id="metadata10">
    <rdf:RDF>
      <cc:Work
         rdf:about="">
        <dc:format>image/svg+xml</dc:format>
        <dc:type
           rdf:resource="http://purl.org/dc/dcmitype/StillImage" />
        <dc:title></dc:title>
      </cc:Work>
    </rdf:RDF>
  </metadata>
  <defs
     id="defs8" />
  <sodipodi:namedview
     pagecolor="#ffffff"
     bordercolor="#666666"
     borderopacity="1"
     objecttolerance="10"
     gridtolerance="10"
     guidetolerance="10"
     inkscape:pageopacity="0"
     inkscape:pageshadow="2"
     inkscape:window-width="1542"
     inkscape:window-height="1041"
     id="namedview6"
     showgrid="false"
     fit-margin-top="0"
     fit-margin-left="0"
     fit-margin-right="0"
     fit-margin-bottom="0"
     inkscape:zoom="5.5995123"
     inkscape:cx="49.439799"
     inkscape:cy="43.645245"
     inkscape:window-x="0"
     inkscape:window-y="0"
     inkscape:window-maximized="0"
     inkscape:current-layer="svg2" />
  <path
     d="m 68.264985,0 c 4.911667,0 9.297198,1.183576 13.156342,3.5499665 3.859179,2.3663903 7.122142,5.5652383 9.788448,9.5968775 2.666364,3.944005 4.700707,8.589396 6.104029,13.935714 1.403311,5.346288 2.105465,11.043177 2.105465,17.090642 0,6.047451 -0.702154,11.744341 -2.105465,17.090635 -1.403322,5.346318 -3.437665,10.034987 -6.104029,14.066599 -2.666306,3.944005 -5.929269,7.098964 -9.788448,9.465387 -3.859144,2.36639 -8.244675,3.549959 -13.156342,3.549959 -3.648637,0 -7.051542,-0.920547 -10.209053,-2.76106 -1.29095,-0.771235 -3.669547,-2.588571 -3.669547,-2.588571 l -1.142851,-1.106581 0,-76.5161102 1.449246,-1.2083088 c 0,0 2.992635,-1.8089326 4.626204,-2.4558846 C 62.125651,0.5698864 65.107496,0 68.264985,0 Z M 31.154254,0 c 3.157482,0 6.139329,0.5698864 8.945997,1.7092644 1.633661,0.6469826 4.626199,2.4558846 4.626199,2.4558846 l 1.449284,1.2083088 0,76.5161102 -1.14288,1.106581 c 0,0 -2.378575,1.817336 -3.669555,2.588571 -3.157483,1.840513 -6.560386,2.76106 -10.209045,2.76106 -4.911677,0 -9.297208,-1.183569 -13.15635,-3.549959 C 14.138762,82.429398 10.875795,79.274439 8.2094599,75.330434 5.5431241,71.298822 3.5081749,66.610153 2.1048561,61.263835 0.70153737,55.917541 0,50.220651 0,44.1732 0,38.125735 0.70153737,32.428846 2.1048561,27.082558 3.5081749,21.73624 5.5431241,17.090849 8.2094599,13.146844 10.875795,9.1152048 14.138762,5.9163568 17.997904,3.5499665 21.857046,1.183576 26.242577,0 31.154254,0 Z"
     id="path4"
     inkscape:connector-curvature="0" />
</svg>
